<svg xmlns="http://www.w3.org/2000/svg" xmlns:xlink="http://www.w3.org/1999/xlink" version="1.1" class="marks" width="1448" height="286" viewBox="0 0 1448 286"><rect width="1448" height="286" fill="white"/><g fill="none" stroke-miterlimit="10" transform="translate(43,27)"><g class="mark-group role-frame root" role="graphics-object" aria-roledescription="group mark container"><g transform="translate(0,0)"><path class="background" aria-hidden="true" d="M0.5,0.5h1400v200h-1400Z" stroke="#ddd"/><g><g class="mark-group role-axis" aria-hidden="true"><g transform="translate(0.5,0.5)"><path class="background" aria-hidden="true" d="M0,0h0v0h0Z" pointer-events="none"/><g><g class="mark-rule role-axis-grid" pointer-events="none"><line transform="translate(0,200)" x2="1400" y2="0" stroke="#ddd" stroke-width="1" opacity="1"/><line transform="translate(0,160)" x2="1400" y2="0" stroke="#ddd" stroke-width="1" opacity="1"/><line transform="translate(0,120)" x2="1400" y2="0" stroke="#ddd" stroke-width="1" opacity="1"/><line transform="translate(0,80)" x2="1400" y2="0" stroke="#ddd" stroke-width="1" opacity="1"/><line transform="translate(0,40)" x2="1400" y2="0" stroke="#ddd" stroke-width="1" opacity="1"/><line transform="translate(0,0)" x2="1400" y2="0" stroke="#ddd" stroke-width="1" opacity="1"/></g></g><path class="foreground" aria-hidden="true" d="" pointer-events="none" display="none"/></g></g><g class="mark-group role-axis" role="graphics-symbol" aria-roledescription="axis" aria-label="X-axis titled 'Nom des salles' for a discrete scale with 70 values: A001, A002, A102, A103, A105, ending with SPOR"><g transform="translate(0.5,200.5)"><path class="background" aria-hidden="true" d="M0,0h0v0h0Z" pointer-events="none"/><g><g class="mark-rule role-axis-tick" pointer-events="none"><line transform="translate(10,0)" x2="0" y2="5" stroke="#888" stroke-width="1" opacity="1"/><line transform="translate(30,0)" x2="0" y2="5" stroke="#888" stroke-width="1" opacity="1"/><line transform="translate(50,0)" x2="0" y2="5" stroke="#888" stroke-width="1" opacity="1"/><line transform="translate(70,0)" x2="0" y2="5" stroke="#888" stroke-width="1" opacity="1"/><line transform="translate(90,0)" x2="0" y2="5" stroke="#888" stroke-width="1" opacity="1"/><line transform="translate(110,0)" x2="0" y2="5" stroke="#888" stroke-width="1" opacity="1"/><line transform="translate(130,0)" x2="0" y2="5" stroke="#888" stroke-width="1" opacity="1"/><line transform="translate(150,0)" x2="0" y2="5" stroke="#888" stroke-width="1" opacity="1"/><line transform="translate(170,0)" x2="0" y2="5" stroke="#888" stroke-width="1" opacity="1"/><line transform="translate(190,0)" x2="0" y2="5" stroke="#888" stroke-width="1" opacity="1"/><line transform="translate(210,0)" x2="0" y2="5" stroke="#888" stroke-width="1" opacity="1"/><line transform="translate(230,0)" x2="0" y2="5" stroke="#888" stroke-width="1" opacity="1"/><line transform="translate(250,0)" x2="0" y2="5" stroke="#888" stroke-width="1" opacity="1"/><line transform="translate(270,0)" x2="0" y2="5" stroke="#888" stroke-width="1" opacity="1"/><line transform="translate(290,0)" x2="0" y2="5" stroke="#888" stroke-width="1" opacity="1"/><line transform="translate(310,0)" x2="0" y2="5" stroke="#888" stroke-width="1" opacity="1"/><line transform="translate(330,0)" x2="0" y2="5" stroke="#888" stroke-width="1" opacity="1"/><line transform="translate(350,0)" x2="0" y2="5" stroke="#888" stroke-width="1" opacity="1"/><line transform="translate(370,0)" x2="0" y2="5" stroke="#888" stroke-width="1" opacity="1"/><line transform="translate(390,0)" x2="0" y2="5" stroke="#888" stroke-width="1" opacity="1"/><line transform="translate(410,0)" x2="0" y2="5" stroke="#888" stroke-width="1" opacity="1"/><line transform="translate(430,0)" x2="0" y2="5" stroke="#888" stroke-width="1" opacity="1"/><line transform="translate(450,0)" x2="0" y2="5" stroke="#888" stroke-width="1" opacity="1"/><line transform="translate(470,0)" x2="0" y2="5" stroke="#888" stroke-width="1" opacity="1"/><line transform="translate(490,0)" x2="0" y2="5" stroke="#888" stroke-width="1" opacity="1"/><line transform="translate(510,0)" x2="0" y2="5" stroke="#888" stroke-width="1" opacity="1"/><line transform="translate(530,0)" x2="0" y2="5" stroke="#888" stroke-width="1" opacity="1"/><line transform="translate(550,0)" x2="0" y2="5" stroke="#888" stroke-width="1" opacity="1"/><line transform="translate(570,0)" x2="0" y2="5" stroke="#888" stroke-width="1" opacity="1"/><line transform="translate(590,0)" x2="0" y2="5" stroke="#888" stroke-width="1" opacity="1"/><line transform="translate(610,0)" x2="0" y2="5" stroke="#888" stroke-width="1" opacity="1"/><line transform="translate(630,0)" x2="0" y2="5" stroke="#888" stroke-width="1" opacity="1"/><line transform="translate(650,0)" x2="0" y2="5" stroke="#888" stroke-width="1" opacity="1"/><line transform="translate(670,0)" x2="0" y2="5" stroke="#888" stroke-width="1" opacity="1"/><line transform="translate(690,0)" x2="0" y2="5" stroke="#888" stroke-width="1" opacity="1"/><line transform="translate(710,0)" x2="0" y2="5" stroke="#888" stroke-width="1" opacity="1"/><line transform="translate(730,0)" x2="0" y2="5" stroke="#888" stroke-width="1" opacity="1"/><line transform="translate(750,0)" x2="0" y2="5" stroke="#888" stroke-width="1" opacity="1"/><line transform="translate(770,0)" x2="0" y2="5" stroke="#888" stroke-width="1" opacity="1"/><line transform="translate(790,0)" x2="0" y2="5" stroke="#888" stroke-width="1" opacity="1"/><line transform="translate(810,0)" x2="0" y2="5" stroke="#888" stroke-width="1" opacity="1"/><line transform="translate(830,0)" x2="0" y2="5" stroke="#888" stroke-width="1" opacity="1"/><line transform="translate(850,0)" x2="0" y2="5" stroke="#888" stroke-width="1" opacity="1"/><line transform="translate(870,0)" x2="0" y2="5" stroke="#888" stroke-width="1" opacity="1"/><line transform="translate(890,0)" x2="0" y2="5" stroke="#888" stroke-width="1" opacity="1"/><line transform="translate(910,0)" x2="0" y2="5" stroke="#888" stroke-width="1" opacity="1"/><line transform="translate(930,0)" x2="0" y2="5" stroke="#888" stroke-width="1" opacity="1"/><line transform="translate(950,0)" x2="0" y2="5" stroke="#888" stroke-width="1" opacity="1"/><line transform="translate(970,0)" x2="0" y2="5" stroke="#888" stroke-width="1" opacity="1"/><line transform="translate(990,0)" x2="0" y2="5" stroke="#888" stroke-width="1" opacity="1"/><line transform="translate(1010,0)" x2="0" y2="5" stroke="#888" stroke-width="1" opacity="1"/><line transform="translate(1030,0)" x2="0" y2="5" stroke="#888" stroke-width="1" opacity="1"/><line transform="translate(1050,0)" x2="0" y2="5" stroke="#888" stroke-width="1" opacity="1"/><line transform="translate(1070,0)" x2="0" y2="5" stroke="#888" stroke-width="1" opacity="1"/><line transform="translate(1090,0)" x2="0" y2="5" stroke="#888" stroke-width="1" opacity="1"/><line transform="translate(1110,0)" x2="0" y2="5" stroke="#888" stroke-width="1" opacity="1"/><line transform="translate(1130,0)" x2="0" y2="5" stroke="#888" stroke-width="1" opacity="1"/><line transform="translate(1150,0)" x2="0" y2="5" stroke="#888" stroke-width="1" opacity="1"/><line transform="translate(1170,0)" x2="0" y2="5" stroke="#888" stroke-width="1" opacity="1"/><line transform="translate(1190,0)" x2="0" y2="5" stroke="#888" stroke-width="1" opacity="1"/><line transform="translate(1210,0)" x2="0" y2="5" stroke="#888" stroke-width="1" opacity="1"/><line transform="translate(1230,0)" x2="0" y2="5" stroke="#888" stroke-width="1" opacity="1"/><line transform="translate(1250,0)" x2="0" y2="5" stroke="#888" stroke-width="1" opacity="1"/><line transform="translate(1270,0)" x2="0" y2="5" stroke="#888" stroke-width="1" opacity="1"/><line transform="translate(1290,0)" x2="0" y2="5" stroke="#888" stroke-width="1" opacity="1"/><line transform="translate(1310,0)" x2="0" y2="5" stroke="#888" stroke-width="1" opacity="1"/><line transform="translate(1330,0)" x2="0" y2="5" stroke="#888" stroke-width="1" opacity="1"/><line transform="translate(1350,0)" x2="0" y2="5" stroke="#888" stroke-width="1" opacity="1"/><line transform="translate(1370,0)" x2="0" y2="5" stroke="#888" stroke-width="1" opacity="1"/><line transform="translate(1390,0)" x2="0" y2="5" stroke="#888" stroke-width="1" opacity="1"/></g><g class="mark-text role-axis-label" pointer-events="none"><text text-anchor="end" transform="translate(9.5,7) rotate(270) translate(0,3)" font-family="sans-serif" font-size="10px" fill="#000" opacity="1">A001</text><text text-anchor="end" transform="translate(29.5,7) rotate(270) translate(0,3)" font-family="sans-serif" font-size="10px" fill="#000" opacity="1">A002</text><text text-anchor="end" transform="translate(49.5,7) rotate(270) translate(0,3)" font-family="sans-serif" font-size="10px" fill="#000" opacity="1">A102</text><text text-anchor="end" transform="translate(69.5,7) rotate(270) translate(0,3)" font-family="sans-serif" font-size="10px" fill="#000" opacity="1">A103</text><text text-anchor="end" transform="translate(89.5,7) rotate(270) translate(0,3)" font-family="sans-serif" font-size="10px" fill="#000" opacity="1">A105</text><text text-anchor="end" transform="translate(109.5,7) rotate(270) translate(0,3)" font-family="sans-serif" font-size="10px" fill="#000" opacity="1">A108</text><text text-anchor="end" transform="translate(129.5,7) rotate(270) translate(0,3)" font-family="sans-serif" font-size="10px" fill="#000" opacity="1">A201</text><text text-anchor="end" transform="translate(149.5,7) rotate(270) translate(0,3)" font-family="sans-serif" font-size="10px" fill="#000" opacity="1">A203</text><text text-anchor="end" transform="translate(169.5,7) rotate(270) translate(0,3)" font-family="sans-serif" font-size="10px" fill="#000" opacity="1">A205</text><text text-anchor="end" transform="translate(189.5,7) rotate(270) translate(0,3)" font-family="sans-serif" font-size="10px" fill="#000" opacity="1">A206</text><text text-anchor="end" transform="translate(209.5,7) rotate(270) translate(0,3)" font-family="sans-serif" font-size="10px" fill="#000" opacity="1">A207</text><text text-anchor="end" transform="translate(229.5,7) rotate(270) translate(0,3)" font-family="sans-serif" font-size="10px" fill="#000" opacity="1">A208</text><text text-anchor="end" transform="translate(249.5,7) rotate(270) translate(0,3)" font-family="sans-serif" font-size="10px" fill="#000" opacity="1">A210</text><text text-anchor="end" transform="translate(269.5,7) rotate(270) translate(0,3)" font-family="sans-serif" font-size="10px" fill="#000" opacity="1">A212</text><text text-anchor="end" transform="translate(289.5,7) rotate(270) translate(0,3)" font-family="sans-serif" font-size="10px" fill="#000" opacity="1">B001</text><text text-anchor="end" transform="translate(309.5,7) rotate(270) translate(0,3)" font-family="sans-serif" font-size="10px" fill="#000" opacity="1">B101</text><text text-anchor="end" transform="translate(329.5,7) rotate(270) translate(0,3)" font-family="sans-serif" font-size="10px" fill="#000" opacity="1">B103</text><text text-anchor="end" transform="translate(349.5,7) rotate(270) translate(0,3)" font-family="sans-serif" font-size="10px" fill="#000" opacity="1">B105</text><text text-anchor="end" transform="translate(369.5,7) rotate(270) translate(0,3)" font-family="sans-serif" font-size="10px" fill="#000" opacity="1">B106</text><text text-anchor="end" transform="translate(389.5,7) rotate(270) translate(0,3)" font-family="sans-serif" font-size="10px" fill="#000" opacity="1">B201</text><text text-anchor="end" transform="translate(409.5,7) rotate(270) translate(0,3)" font-family="sans-serif" font-size="10px" fill="#000" opacity="1">B202</text><text text-anchor="end" transform="translate(429.5,7) rotate(270) translate(0,3)" font-family="sans-serif" font-size="10px" fill="#000" opacity="1">B203</text><text text-anchor="end" transform="translate(449.5,7) rotate(270) translate(0,3)" font-family="sans-serif" font-size="10px" fill="#000" opacity="1">B204</text><text text-anchor="end" transform="translate(469.5,7) rotate(270) translate(0,3)" font-family="sans-serif" font-size="10px" fill="#000" opacity="1">B205</text><text text-anchor="end" transform="translate(489.5,7) rotate(270) translate(0,3)" font-family="sans-serif" font-size="10px" fill="#000" opacity="1">B207</text><text text-anchor="end" transform="translate(509.5,7) rotate(270) translate(0,3)" font-family="sans-serif" font-size="10px" fill="#000" opacity="1">B208</text><text text-anchor="end" transform="translate(529.5,7) rotate(270) translate(0,3)" font-family="sans-serif" font-size="10px" fill="#000" opacity="1">C001</text><text text-anchor="end" transform="translate(549.5,7) rotate(270) translate(0,3)" font-family="sans-serif" font-size="10px" fill="#000" opacity="1">C002</text><text text-anchor="end" transform="translate(569.5,7) rotate(270) translate(0,3)" font-family="sans-serif" font-size="10px" fill="#000" opacity="1">C102</text><text text-anchor="end" transform="translate(589.5,7) rotate(270) translate(0,3)" font-family="sans-serif" font-size="10px" fill="#000" opacity="1">C103</text><text text-anchor="end" transform="translate(609.5,7) rotate(270) translate(0,3)" font-family="sans-serif" font-size="10px" fill="#000" opacity="1">C104</text><text text-anchor="end" transform="translate(629.5,7) rotate(270) translate(0,3)" font-family="sans-serif" font-size="10px" fill="#000" opacity="1">C105</text><text text-anchor="end" transform="translate(649.5,7) rotate(270) translate(0,3)" font-family="sans-serif" font-size="10px" fill="#000" opacity="1">C201</text><text text-anchor="end" transform="translate(669.5,7) rotate(270) translate(0,3)" font-family="sans-serif" font-size="10px" fill="#000" opacity="1">C203</text><text text-anchor="end" transform="translate(689.5,7) rotate(270) translate(0,3)" font-family="sans-serif" font-size="10px" fill="#000" opacity="1">C204</text><text text-anchor="end" transform="translate(709.5,7) rotate(270) translate(0,3)" font-family="sans-serif" font-size="10px" fill="#000" opacity="1">C205</text><text text-anchor="end" transform="translate(729.5,7) rotate(270) translate(0,3)" font-family="sans-serif" font-size="10px" fill="#000" opacity="1">C206</text><text text-anchor="end" transform="translate(749.5,7) rotate(270) translate(0,3)" font-family="sans-serif" font-size="10px" fill="#000" opacity="1">C207</text><text text-anchor="end" transform="translate(769.5,7) rotate(270) translate(0,3)" font-family="sans-serif" font-size="10px" fill="#000" opacity="1">C208</text><text text-anchor="end" transform="translate(789.5,7) rotate(270) translate(0,3)" font-family="sans-serif" font-size="10px" fill="#000" opacity="1">C210</text><text text-anchor="end" transform="translate(809.5,7) rotate(270) translate(0,3)" font-family="sans-serif" font-size="10px" fill="#000" opacity="1">D002</text><text text-anchor="end" transform="translate(829.5,7) rotate(270) translate(0,3)" font-family="sans-serif" font-size="10px" fill="#000" opacity="1">D101</text><text text-anchor="end" transform="translate(849.5,7) rotate(270) translate(0,3)" font-family="sans-serif" font-size="10px" fill="#000" opacity="1">D105</text><text text-anchor="end" transform="translate(869.5,7) rotate(270) translate(0,3)" font-family="sans-serif" font-size="10px" fill="#000" opacity="1">D106</text><text text-anchor="end" transform="translate(889.5,7) rotate(270) translate(0,3)" font-family="sans-serif" font-size="10px" fill="#000" opacity="1">D201</text><text text-anchor="end" transform="translate(909.5,7) rotate(270) translate(0,3)" font-family="sans-serif" font-size="10px" fill="#000" opacity="1">D202</text><text text-anchor="end" transform="translate(929.5,7) rotate(270) translate(0,3)" font-family="sans-serif" font-size="10px" fill="#000" opacity="1">EXT1</text><text text-anchor="end" transform="translate(949.5,7) rotate(270) translate(0,3)" font-family="sans-serif" font-size="10px" fill="#000" opacity="1">J002</text><text text-anchor="end" transform="translate(969.5,7) rotate(270) translate(0,3)" font-family="sans-serif" font-size="10px" fill="#000" opacity="1">J004</text><text text-anchor="end" transform="translate(989.5,7) rotate(270) translate(0,3)" font-family="sans-serif" font-size="10px" fill="#000" opacity="1">J101</text><text text-anchor="end" transform="translate(1009.5,7) rotate(270) translate(0,3)" font-family="sans-serif" font-size="10px" fill="#000" opacity="1">M102</text><text text-anchor="end" transform="translate(1029.5,7) rotate(270) translate(0,3)" font-family="sans-serif" font-size="10px" fill="#000" opacity="1">M207</text><text text-anchor="end" transform="translate(1049.5,7) rotate(270) translate(0,3)" font-family="sans-serif" font-size="10px" fill="#000" opacity="1">N101</text><text text-anchor="end" transform="translate(1069.5,7) rotate(270) translate(0,3)" font-family="sans-serif" font-size="10px" fill="#000" opacity="1">P101</text><text text-anchor="end" transform="translate(1089.5,7) rotate(270) translate(0,3)" font-family="sans-serif" font-size="10px" fill="#000" opacity="1">P102</text><text text-anchor="end" transform="translate(1109.5,7) rotate(270) translate(0,3)" font-family="sans-serif" font-size="10px" fill="#000" opacity="1">P103</text><text text-anchor="end" transform="translate(1129.5,7) rotate(270) translate(0,3)" font-family="sans-serif" font-size="10px" fill="#000" opacity="1">P104</text><text text-anchor="end" transform="translate(1149.5,7) rotate(270) translate(0,3)" font-family="sans-serif" font-size="10px" fill="#000" opacity="1">P201</text><text text-anchor="end" transform="translate(1169.5,7) rotate(270) translate(0,3)" font-family="sans-serif" font-size="10px" fill="#000" opacity="1">P202</text><text text-anchor="end" transform="translate(1189.5,7) rotate(270) translate(0,3)" font-family="sans-serif" font-size="10px" fill="#000" opacity="1">P203</text><text text-anchor="end" transform="translate(1209.5,7) rotate(270) translate(0,3)" font-family="sans-serif" font-size="10px" fill="#000" opacity="1">P204</text><text text-anchor="end" transform="translate(1229.5,7) rotate(270) translate(0,3)" font-family="sans-serif" font-size="10px" fill="#000" opacity="1">S101</text><text text-anchor="end" transform="translate(1249.5,7) rotate(270) translate(0,3)" font-family="sans-serif" font-size="10px" fill="#000" opacity="1">S102</text><text text-anchor="end" transform="translate(1269.5,7) rotate(270) translate(0,3)" font-family="sans-serif" font-size="10px" fill="#000" opacity="1">S103</text><text text-anchor="end" transform="translate(1289.5,7) rotate(270) translate(0,3)" font-family="sans-serif" font-size="10px" fill="#000" opacity="1">S104</text><text text-anchor="end" transform="translate(1309.5,7) rotate(270) translate(0,3)" font-family="sans-serif" font-size="10px" fill="#000" opacity="1">S201</text><text text-anchor="end" transform="translate(1329.5,7) rotate(270) translate(0,3)" font-family="sans-serif" font-size="10px" fill="#000" opacity="1">S202</text><text text-anchor="end" transform="translate(1349.5,7) rotate(270) translate(0,3)" font-family="sans-serif" font-size="10px" fill="#000" opacity="1">S203</text><text text-anchor="end" transform="translate(1369.5,7) rotate(270) translate(0,3)" font-family="sans-serif" font-size="10px" fill="#000" opacity="1">S204</text><text text-anchor="end" transform="translate(1389.5,7) rotate(270) translate(0,3)" font-family="sans-serif" font-size="10px" fill="#000" opacity="1">SPOR</text></g><g class="mark-rule role-axis-domain" pointer-events="none"><line transform="translate(0,0)" x2="1400" y2="0" stroke="#888" stroke-width="1" opacity="1"/></g><g class="mark-text role-axis-title" pointer-events="none"><text text-anchor="middle" transform="translate(700,52)" font-family="sans-serif" font-size="11px" font-weight="bold" fill="#000" opacity="1">Nom des salles</text></g></g><path class="foreground" aria-hidden="true" d="" pointer-events="none" display="none"/></g></g><g class="mark-group role-axis" role="graphics-symbol" aria-roledescription="axis" aria-label="Y-axis titled 'Taux d'occupation' for a linear scale with values from 0 to 10"><g transform="translate(0.5,0.5)"><path class="background" aria-hidden="true" d="M0,0h0v0h0Z" pointer-events="none"/><g><g class="mark-rule role-axis-tick" pointer-events="none"><line transform="translate(0,200)" x2="-5" y2="0" stroke="#888" stroke-width="1" opacity="1"/><line transform="translate(0,160)" x2="-5" y2="0" stroke="#888" stroke-width="1" opacity="1"/><line transform="translate(0,120)" x2="-5" y2="0" stroke="#888" stroke-width="1" opacity="1"/><line transform="translate(0,80)" x2="-5" y2="0" stroke="#888" stroke-width="1" opacity="1"/><line transform="translate(0,40)" x2="-5" y2="0" stroke="#888" stroke-width="1" opacity="1"/><line transform="translate(0,0)" x2="-5" y2="0" stroke="#888" stroke-width="1" opacity="1"/></g><g class="mark-text role-axis-label" pointer-events="none"><text text-anchor="end" transform="translate(-7,203)" font-family="sans-serif" font-size="10px" fill="#000" opacity="1">0</text><text text-anchor="end" transform="translate(-7,163)" font-family="sans-serif" font-size="10px" fill="#000" opacity="1">2</text><text text-anchor="end" transform="translate(-7,123)" font-family="sans-serif" font-size="10px" fill="#000" opacity="1">4</text><text text-anchor="end" transform="translate(-7,83)" font-family="sans-serif" font-size="10px" fill="#000" opacity="1">6</text><text text-anchor="end" transform="translate(-7,42.99999999999999)" font-family="sans-serif" font-size="10px" fill="#000" opacity="1">8</text><text text-anchor="end" transform="translate(-7,3)" font-family="sans-serif" font-size="10px" fill="#000" opacity="1">10</text></g><g class="mark-rule role-axis-domain" pointer-events="none"><line transform="translate(0,200)" x2="0" y2="-200" stroke="#888" stroke-width="1" opacity="1"/></g><g class="mark-text role-axis-title" pointer-events="none"><text text-anchor="middle" transform="translate(-27,100) rotate(-90) translate(0,-2)" font-family="sans-serif" font-size="11px" font-weight="bold" fill="#000" opacity="1">Taux d'occupation</text></g></g><path class="foreground" aria-hidden="true" d="" pointer-events="none" display="none"/></g></g><g class="mark-rect role-mark marks" role="graphics-object" aria-roledescription="rect mark container"><path aria-label="salle: B106; taux: 1" role="graphics-symbol" aria-roledescription="bar" d="M361,180h18v20h-18Z" fill="#4c78a8"/><path aria-label="salle: EXT1; taux: 1" role="graphics-symbol" aria-roledescription="bar" d="M921,180h18v20h-18Z" fill="#4c78a8"/><path aria-label="salle: B203; taux: 1" role="graphics-symbol" aria-roledescription="bar" d="M421,180h18v20h-18Z" fill="#4c78a8"/><path aria-label="salle: SPOR; taux: 2" role="graphics-symbol" aria-roledescription="bar" d="M1381,160h18v40h-18Z" fill="#4c78a8"/><path aria-label="salle: B207; taux: 2" role="graphics-symbol" aria-roledescription="bar" d="M481,160h18v40h-18Z" fill="#4c78a8"/><path aria-label="salle: B205; taux: 2" role="graphics-symbol" aria-roledescription="bar" d="M461,160h18v40h-18Z" fill="#4c78a8"/><path aria-label="salle: A108; taux: 2" role="graphics-symbol" aria-roledescription="bar" d="M101,160h18v40h-18Z" fill="#4c78a8"/><path aria-label="salle: A103; taux: 2" role="graphics-symbol" aria-roledescription="bar" d="M61,160h18v40h-18Z" fill="#4c78a8"/><path aria-label="salle: C104; taux: 2" role="graphics-symbol" aria-roledescription="bar" d="M601,160h18v40h-18Z" fill="#4c78a8"/><path aria-label="salle: C102; taux: 2" role="graphics-symbol" aria-roledescription="bar" d="M561,160h18v40h-18Z" fill="#4c78a8"/><path aria-label="salle: C201; taux: 2" role="graphics-symbol" aria-roledescription="bar" d="M641,160h18v40h-18Z" fill="#4c78a8"/><path aria-label="salle: C205; taux: 2" role="graphics-symbol" aria-roledescription="bar" d="M701,160h18v40h-18Z" fill="#4c78a8"/><path aria-label="salle: C210; taux: 2" role="graphics-symbol" aria-roledescription="bar" d="M781,160h18v40h-18Z" fill="#4c78a8"/><path aria-label="salle: A207; taux: 2" role="graphics-symbol" aria-roledescription="bar" d="M201,160h18v40h-18Z" fill="#4c78a8"/><path aria-label="salle: M102; taux: 2" role="graphics-symbol" aria-roledescription="bar" d="M1001,160h18v40h-18Z" fill="#4c78a8"/><path aria-label="salle: D002; taux: 3" role="graphics-symbol" aria-roledescription="bar" d="M801,140h18v60h-18Z" fill="#4c78a8"/><path aria-label="salle: D105; taux: 3" role="graphics-symbol" aria-roledescription="bar" d="M841,140h18v60h-18Z" fill="#4c78a8"/><path aria-label="salle: D201; taux: 3" role="graphics-symbol" aria-roledescription="bar" d="M881,140h18v60h-18Z" fill="#4c78a8"/><path aria-label="salle: B204; taux: 3" role="graphics-symbol" aria-roledescription="bar" d="M441,140h18v60h-18Z" fill="#4c78a8"/><path aria-label="salle: B208; taux: 3" role="graphics-symbol" aria-roledescription="bar" d="M501,140h18v60h-18Z" fill="#4c78a8"/><path aria-label="salle: D106; taux: 3" role="graphics-symbol" aria-roledescription="bar" d="M861,140h18v60h-18Z" fill="#4c78a8"/><path aria-label="salle: B105; taux: 3" role="graphics-symbol" aria-roledescription="bar" d="M341,140h18v60h-18Z" fill="#4c78a8"/><path aria-label="salle: C001; taux: 3" role="graphics-symbol" aria-roledescription="bar" d="M521,140h18v60h-18Z" fill="#4c78a8"/><path aria-label="salle: M207; taux: 3" role="graphics-symbol" aria-roledescription="bar" d="M1021,140h18v60h-18Z" fill="#4c78a8"/><path aria-label="salle: A102; taux: 4" role="graphics-symbol" aria-roledescription="bar" d="M41,120h18v80h-18Z" fill="#4c78a8"/><path aria-label="salle: A201; taux: 4" role="graphics-symbol" aria-roledescription="bar" d="M121,120h18v80h-18Z" fill="#4c78a8"/><path aria-label="salle: A210; taux: 4" role="graphics-symbol" aria-roledescription="bar" d="M241,120h18v80h-18Z" fill="#4c78a8"/><path aria-label="salle: A212; taux: 4" role="graphics-symbol" aria-roledescription="bar" d="M261,120h18v80h-18Z" fill="#4c78a8"/><path aria-label="salle: J101; taux: 4" role="graphics-symbol" aria-roledescription="bar" d="M981,120h18v80h-18Z" fill="#4c78a8"/><path aria-label="salle: B103; taux: 4" role="graphics-symbol" aria-roledescription="bar" d="M321,120h18v80h-18Z" fill="#4c78a8"/><path aria-label="salle: A002; taux: 4" role="graphics-symbol" aria-roledescription="bar" d="M21,120h18v80h-18Z" fill="#4c78a8"/><path aria-label="salle: D101; taux: 4" role="graphics-symbol" aria-roledescription="bar" d="M821,120h18v80h-18Z" fill="#4c78a8"/><path aria-label="salle: C203; taux: 4" role="graphics-symbol" aria-roledescription="bar" d="M661,120h18v80h-18Z" fill="#4c78a8"/><path aria-label="salle: C206; taux: 4" role="graphics-symbol" aria-roledescription="bar" d="M721,120h18v80h-18Z" fill="#4c78a8"/><path aria-label="salle: C208; taux: 4" role="graphics-symbol" aria-roledescription="bar" d="M761,120h18v80h-18Z" fill="#4c78a8"/><path aria-label="salle: S204; taux: 4" role="graphics-symbol" aria-roledescription="bar" d="M1361,120h18v80h-18Z" fill="#4c78a8"/><path aria-label="salle: A105; taux: 4" role="graphics-symbol" aria-roledescription="bar" d="M81,120h18v80h-18Z" fill="#4c78a8"/><path aria-label="salle: C105; taux: 4" role="graphics-symbol" aria-roledescription="bar" d="M621,120h18v80h-18Z" fill="#4c78a8"/><path aria-label="salle: S101; taux: 5" role="graphics-symbol" aria-roledescription="bar" d="M1221,100h18v100h-18Z" fill="#4c78a8"/><path aria-label="salle: A001; taux: 5" role="graphics-symbol" aria-roledescription="bar" d="M1,100h18v100h-18Z" fill="#4c78a8"/><path aria-label="salle: C002; taux: 5" role="graphics-symbol" aria-roledescription="bar" d="M541,100h18v100h-18Z" fill="#4c78a8"/><path aria-label="salle: P201; taux: 5" role="graphics-symbol" aria-roledescription="bar" d="M1141,100h18v100h-18Z" fill="#4c78a8"/><path aria-label="salle: A206; taux: 5" role="graphics-symbol" aria-roledescription="bar" d="M181,100h18v100h-18Z" fill="#4c78a8"/><path aria-label="salle: A208; taux: 5" role="graphics-symbol" aria-roledescription="bar" d="M221,100h18v100h-18Z" fill="#4c78a8"/><path aria-label="salle: P104; taux: 5" role="graphics-symbol" aria-roledescription="bar" d="M1121,100h18v100h-18Z" fill="#4c78a8"/><path aria-label="salle: A203; taux: 5" role="graphics-symbol" aria-roledescription="bar" d="M141,100h18v100h-18Z" fill="#4c78a8"/><path aria-label="salle: P203; taux: 6" role="graphics-symbol" aria-roledescription="bar" d="M1181,80h18v120h-18Z" fill="#4c78a8"/><path aria-label="salle: S104; taux: 6" role="graphics-symbol" aria-roledescription="bar" d="M1281,80h18v120h-18Z" fill="#4c78a8"/><path aria-label="salle: J002; taux: 6" role="graphics-symbol" aria-roledescription="bar" d="M941,80h18v120h-18Z" fill="#4c78a8"/><path aria-label="salle: P202; taux: 6" role="graphics-symbol" aria-roledescription="bar" d="M1161,80h18v120h-18Z" fill="#4c78a8"/><path aria-label="salle: S202; taux: 6" role="graphics-symbol" aria-roledescription="bar" d="M1321,80h18v120h-18Z" fill="#4c78a8"/><path aria-label="salle: C103; taux: 6" role="graphics-symbol" aria-roledescription="bar" d="M581,80h18v120h-18Z" fill="#4c78a8"/><path aria-label="salle: C207; taux: 6" role="graphics-symbol" aria-roledescription="bar" d="M741,80h18v120h-18Z" fill="#4c78a8"/><path aria-label="salle: J004; taux: 6" role="graphics-symbol" aria-roledescription="bar" d="M961,80h18v120h-18Z" fill="#4c78a8"/><path aria-label="salle: S102; taux: 6" role="graphics-symbol" aria-roledescription="bar" d="M1241,80h18v120h-18Z" fill="#4c78a8"/><path aria-label="salle: A205; taux: 6" role="graphics-symbol" aria-roledescription="bar" d="M161,80h18v120h-18Z" fill="#4c78a8"/><path aria-label="salle: S201; taux: 7" role="graphics-symbol" aria-roledescription="bar" d="M1301,60.00000000000001h18v140h-18Z" fill="#4c78a8"/><path aria-label="salle: S203; taux: 7" role="graphics-symbol" aria-roledescription="bar" d="M1341,60.00000000000001h18v140h-18Z" fill="#4c78a8"/><path aria-label="salle: P102; taux: 7" role="graphics-symbol" aria-roledescription="bar" d="M1081,60.00000000000001h18v140h-18Z" fill="#4c78a8"/><path aria-label="salle: B101; taux: 7" role="graphics-symbol" aria-roledescription="bar" d="M301,60.00000000000001h18v140h-18Z" fill="#4c78a8"/><path aria-label="salle: P103; taux: 7" role="graphics-symbol" aria-roledescription="bar" d="M1101,60.00000000000001h18v140h-18Z" fill="#4c78a8"/><path aria-label="salle: D202; taux: 8" role="graphics-symbol" aria-roledescription="bar" d="M901,39.99999999999999h18v160h-18Z" fill="#4c78a8"/><path aria-label="salle: B202; taux: 8" role="graphics-symbol" aria-roledescription="bar" d="M401,39.99999999999999h18v160h-18Z" fill="#4c78a8"/><path aria-label="salle: P204; taux: 8" role="graphics-symbol" aria-roledescription="bar" d="M1201,39.99999999999999h18v160h-18Z" fill="#4c78a8"/><path aria-label="salle: C204; taux: 8" role="graphics-symbol" aria-roledescription="bar" d="M681,39.99999999999999h18v160h-18Z" fill="#4c78a8"/><path aria-label="salle: P101; taux: 8" role="graphics-symbol" aria-roledescription="bar" d="M1061,39.99999999999999h18v160h-18Z" fill="#4c78a8"/><path aria-label="salle: B001; taux: 8" role="graphics-symbol" aria-roledescription="bar" d="M281,39.99999999999999h18v160h-18Z" fill="#4c78a8"/><path aria-label="salle: S103; taux: 8" role="graphics-symbol" aria-roledescription="bar" d="M1261,39.99999999999999h18v160h-18Z" fill="#4c78a8"/><path aria-label="salle: B201; taux: 9" role="graphics-symbol" aria-roledescription="bar" d="M381,19.999999999999996h18v180h-18Z" fill="#4c78a8"/><path aria-label="salle: N101; taux: 10" role="graphics-symbol" aria-roledescription="bar" d="M1041,0h18v200h-18Z" fill="#4c78a8"/></g><g class="mark-group role-title"><g transform="translate(700,-22)"><path class="background" aria-hidden="true" d="M0,0h0v0h0Z" pointer-events="none"/><g><g class="mark-text role-title-text" role="graphics-symbol" aria-roledescription="title" aria-label="Title text 'Taux d'occupation des salles de l'UTT les lundi'" pointer-events="none"><text text-anchor="middle" transform="translate(0,10)" font-family="sans-serif" font-size="13px" font-weight="bold" fill="#000" opacity="1">Taux d'occupation des salles de l'UTT les lundi</text></g></g><path class="foreground" aria-hidden="true" d="" pointer-events="none" display="none"/></g></g></g><path class="foreground" aria-hidden="true" d="" display="none"/></g></g></g></svg>